<?xml version="1.0" encoding="UTF-8" standalone="no"?>
<!DOCTYPE svg PUBLIC "-//W3C//DTD SVG 1.1//EN"
 "http://www.w3.org/Graphics/SVG/1.1/DTD/svg11.dtd">
<!-- Generated by graphviz version 2.43.0 (0)
 -->
<!-- Title: %3 Pages: 1 -->
<svg width="6366pt" height="895pt"
 viewBox="0.00 0.00 6366.10 895.10" xmlns="http://www.w3.org/2000/svg" xmlns:xlink="http://www.w3.org/1999/xlink">
<g id="graph0" class="graph" transform="scale(1 1) rotate(0) translate(15.05 880.05)">
<title>%3</title>
<g id="clust1" class="cluster">
<title>cluster_components</title>
<polygon fill="#999999" stroke="#808080" points="8,-296 8,-596 6328,-596 6328,-296 8,-296"/>
<text text-anchor="start" x="16" y="-584.2" font-family="Arial" font-weight="bold" font-size="11.00" fill="#6d6d6d" fill-opacity="0.701961">COMPONENTS</text>
</g>
<!-- dogfood_banner -->
<g id="node1" class="node">
<title>dogfood_banner</title>
<polygon fill="#ffffff" stroke="#d6d6d6" stroke-width="0" points="798,-516 478,-516 478,-336 798,-336 798,-516"/>
<text text-anchor="start" x="564" y="-421" font-family="Arial" font-size="20.00" fill="#5b5b5b">dogfood_banner</text>
</g>
<!-- example -->
<g id="node2" class="node">
<title>example</title>
<polygon fill="#ffffff" stroke="#d6d6d6" stroke-width="0" points="2628,-516 2308,-516 2308,-336 2628,-336 2628,-516"/>
<text text-anchor="start" x="2430" y="-421" font-family="Arial" font-size="20.00" fill="#5b5b5b">example</text>
</g>
<!-- features -->
<g id="node3" class="node">
<title>features</title>
<polygon fill="#ffffff" stroke="#d6d6d6" stroke-width="0" points="1228,-516 908,-516 908,-336 1228,-336 1228,-516"/>
<text text-anchor="start" x="1031.5" y="-421" font-family="Arial" font-size="20.00" fill="#5b5b5b">features</text>
</g>
<!-- footer -->
<g id="node4" class="node">
<title>footer</title>
<polygon fill="#ffffff" stroke="#d6d6d6" stroke-width="0" points="5858,-516 5538,-516 5538,-336 5858,-336 5858,-516"/>
<text text-anchor="start" x="5672" y="-421" font-family="Arial" font-size="20.00" fill="#5b5b5b">footer</text>
</g>
<!-- hero -->
<g id="node5" class="node">
<title>hero</title>
<polygon fill="#ffffff" stroke="#d6d6d6" stroke-width="0" points="4888,-516 4568,-516 4568,-336 4888,-336 4888,-516"/>
<text text-anchor="start" x="4707.5" y="-421" font-family="Arial" font-size="20.00" fill="#5b5b5b">hero</text>
</g>
<!-- how_it_works -->
<g id="node6" class="node">
<title>how_it_works</title>
<polygon fill="#ffffff" stroke="#d6d6d6" stroke-width="0" points="1658,-516 1338,-516 1338,-336 1658,-336 1658,-516"/>
<text text-anchor="start" x="1437.5" y="-421" font-family="Arial" font-size="20.00" fill="#5b5b5b">how_it_works</text>
</g>
<!-- install -->
<g id="node7" class="node">
<title>install</title>
<polygon fill="#ffffff" stroke="#d6d6d6" stroke-width="0" points="3488,-516 3168,-516 3168,-336 3488,-336 3488,-516"/>
<text text-anchor="start" x="3302" y="-421" font-family="Arial" font-size="20.00" fill="#5b5b5b">install</text>
</g>
<!-- roadmap -->
<g id="node8" class="node">
<title>roadmap</title>
<polygon fill="#ffffff" stroke="#d6d6d6" stroke-width="0" points="6288,-516 5968,-516 5968,-336 6288,-336 6288,-516"/>
<text text-anchor="start" x="6088" y="-421" font-family="Arial" font-size="20.00" fill="#5b5b5b">roadmap</text>
</g>
<!-- version_switcher -->
<g id="node9" class="node">
<title>version_switcher</title>
<polygon fill="#ffffff" stroke="#d6d6d6" stroke-width="0" points="3058,-516 2738,-516 2738,-336 3058,-336 3058,-516"/>
<text text-anchor="start" x="2823.5" y="-421" font-family="Arial" font-size="20.00" fill="#5b5b5b">version_switcher</text>
</g>
<!-- feature_card -->
<g id="node10" class="node">
<title>feature_card</title>
<polygon fill="#ffffff" stroke="#d6d6d6" stroke-width="0" points="4458,-516 4138,-516 4138,-336 4458,-336 4458,-516"/>
<text text-anchor="start" x="4241.5" y="-421" font-family="Arial" font-size="20.00" fill="#5b5b5b">feature_card</text>
</g>
<!-- icons_ -->
<g id="node11" class="node">
<title>icons_</title>
<polygon fill="#ffffff" stroke="#d6d6d6" stroke-width="0" points="5428,-516 5108,-516 5108,-336 5428,-336 5428,-516"/>
<text text-anchor="start" x="5244.5" y="-421" font-family="Arial" font-size="20.00" fill="#5b5b5b">icons</text>
</g>
<!-- code_tabs -->
<g id="node12" class="node">
<title>code_tabs</title>
<polygon fill="#ffffff" stroke="#d6d6d6" stroke-width="0" points="2198,-516 1878,-516 1878,-336 2198,-336 2198,-516"/>
<text text-anchor="start" x="1991.5" y="-421" font-family="Arial" font-size="20.00" fill="#5b5b5b">code_tabs</text>
</g>
<!-- code_block -->
<g id="node13" class="node">
<title>code_block</title>
<polygon fill="#ffffff" stroke="#d6d6d6" stroke-width="0" points="4028,-516 3708,-516 3708,-336 4028,-336 4028,-516"/>
<text text-anchor="start" x="3817" y="-421" font-family="Arial" font-size="20.00" fill="#5b5b5b">code_block</text>
</g>
<!-- unreleased_badge -->
<g id="node14" class="node">
<title>unreleased_badge</title>
<polygon fill="#ffffff" stroke="#d6d6d6" stroke-width="0" points="368,-516 48,-516 48,-336 368,-336 368,-516"/>
<text text-anchor="start" x="124" y="-421" font-family="Arial" font-size="20.00" fill="#5b5b5b">unreleased_badge</text>
</g>
<!-- app -->
<g id="node15" class="node">
<title>app</title>
<polygon fill="#ffffff" stroke="#d6d6d6" stroke-width="0" points="3058,-865 2738,-865 2738,-685 3058,-685 3058,-865"/>
<text text-anchor="start" x="2881" y="-770" font-family="Arial" font-size="20.00" fill="#5b5b5b">app</text>
</g>
<!-- snippets -->
<g id="node16" class="node">
<title>snippets</title>
<polygon fill="#ffffff" stroke="#d6d6d6" stroke-width="0" points="2051,-180 1715,-180 1715,0 2051,0 2051,-180"/>
<text text-anchor="start" x="1845.5" y="-129" font-family="Arial" font-size="20.00" fill="#5b5b5b">snippets</text>
<text text-anchor="start" x="1735" y="-107" font-family="Arial" font-size="15.00" fill="#6d6d6d">Syntax&#45;highlighted code snippets, generated</text>
<text text-anchor="start" x="1783" y="-90" font-family="Arial" font-size="15.00" fill="#6d6d6d">at build time by `build.rs` from</text>
<text text-anchor="start" x="1739.5" y="-73" font-family="Arial" font-size="15.00" fill="#6d6d6d">the files in `snippets/`. Each constant holds</text>
<text text-anchor="start" x="1806" y="-56" font-family="Arial" font-size="15.00" fill="#6d6d6d">highlighted inner HTML</text>
<text text-anchor="start" x="1736.5" y="-39" font-family="Arial" font-size="15.00" fill="#6d6d6d">(token spans with inline colors) rendered via</text>
</g>
<!-- version -->
<g id="node17" class="node">
<title>version</title>
<polygon fill="#ffffff" stroke="#d6d6d6" stroke-width="0" points="4652.5,-180 4305.5,-180 4305.5,0 4652.5,0 4652.5,-180"/>
<text text-anchor="start" x="4447" y="-129" font-family="Arial" font-size="20.00" fill="#5b5b5b">version</text>
<text text-anchor="start" x="4342.5" y="-107" font-family="Arial" font-size="15.00" fill="#6d6d6d">The build&#39;s version identity, the one place</text>
<text text-anchor="start" x="4404.5" y="-90" font-family="Arial" font-size="15.00" fill="#6d6d6d">the site&#39;s path prefix is</text>
<text text-anchor="start" x="4358" y="-73" font-family="Arial" font-size="15.00" fill="#6d6d6d">spelled, and the fetch of the files the</text>
<text text-anchor="start" x="4370" y="-56" font-family="Arial" font-size="15.00" fill="#6d6d6d">deploy shares between versions.</text>
<text text-anchor="start" x="4326" y="-39" font-family="Arial" font-size="15.00" fill="#6d6d6d">`build.rs` injects `SITE_VERSION`; the deploy</text>
</g>
<!-- roadmap_1 -->
<g id="node18" class="node">
<title>roadmap_1</title>
<polygon fill="#ffffff" stroke="#d6d6d6" stroke-width="0" points="6300,-180 5956,-180 5956,0 6300,0 6300,-180"/>
<text text-anchor="start" x="6088" y="-129" font-family="Arial" font-size="20.00" fill="#5b5b5b">roadmap</text>
<text text-anchor="start" x="6046" y="-107" font-family="Arial" font-size="15.00" fill="#6d6d6d">The roadmap as data, in</text>
<text text-anchor="start" x="5976" y="-90" font-family="Arial" font-size="15.00" fill="#6d6d6d">`public/roadmap.json`: Now (the next release,</text>
<text text-anchor="start" x="5993.5" y="-73" font-family="Arial" font-size="15.00" fill="#6d6d6d">with each item&#39;s status), Next and Later.</text>
<text text-anchor="start" x="6046.5" y="-56" font-family="Arial" font-size="15.00" fill="#6d6d6d">Trunk copies the file into</text>
<text text-anchor="start" x="5988" y="-39" font-family="Arial" font-size="15.00" fill="#6d6d6d">every build, so main&#39;s copy is published at</text>
</g>
<!-- example&#45;&gt;code_block -->
<g id="edge10" class="edge">
<title>example&#45;&gt;code_block</title>
<path fill="none" stroke="#8d8d8d" stroke-width="2" stroke-dasharray="1,5" d="M2560.92,-516.08C2596.27,-544.48 2638.76,-572.27 2683,-587 2773.66,-617.18 3449.96,-608.78 3543,-587 3602.57,-573.05 3663.74,-546.5 3716.71,-518.92"/>
<ellipse fill="none" stroke="#8d8d8d" stroke-width="2" cx="3719.48" cy="-517.47" rx="3" ry="3"/>
<polygon fill="#18191b" fill-opacity="0.627451" stroke="transparent" points="3040,-604 3040,-625 3112,-625 3112,-604 3040,-604"/>
<text text-anchor="start" x="3043" y="-610.3" font-family="Arial" font-size="14.00" fill="#c9c9c9">CodeBlock</text>
</g>
<!-- example&#45;&gt;snippets -->
<g id="edge11" class="edge">
<title>example&#45;&gt;snippets</title>
<path fill="none" stroke="#8d8d8d" stroke-width="2" stroke-dasharray="1,5" d="M2320.94,-335.85C2298.26,-322.37 2275.06,-308.72 2253,-296 2187.72,-258.35 2115.33,-217.94 2052.01,-183.04"/>
<ellipse fill="none" stroke="#8d8d8d" stroke-width="2" cx="2049.32" cy="-181.56" rx="3" ry="3"/>
<polygon fill="#18191b" fill-opacity="0.627451" stroke="transparent" points="2213,-247.5 2213,-268.5 2270,-268.5 2270,-247.5 2213,-247.5"/>
<text text-anchor="start" x="2216.5" y="-253.8" font-family="Arial" font-size="14.00" fill="#c9c9c9">snippets</text>
</g>
<!-- features&#45;&gt;feature_card -->
<g id="edge12" class="edge">
<title>features&#45;&gt;feature_card</title>
<path fill="none" stroke="#8d8d8d" stroke-width="2" stroke-dasharray="1,5" d="M1160.92,-516.08C1196.27,-544.48 1238.76,-572.27 1283,-587 1430.59,-636.14 3935.41,-636.14 4083,-587 4125.17,-572.96 4165.74,-547.06 4200.06,-520.07"/>
<ellipse fill="none" stroke="#8d8d8d" stroke-width="2" cx="4202.73" cy="-517.95" rx="3" ry="3"/>
<polygon fill="#18191b" fill-opacity="0.627451" stroke="transparent" points="2567,-604 2567,-625 2649,-625 2649,-604 2567,-604"/>
<text text-anchor="start" x="2570" y="-610.3" font-family="Arial" font-size="14.00" fill="#c9c9c9">FeatureCard</text>
</g>
<!-- features&#45;&gt;code_block -->
<g id="edge13" class="edge">
<title>features&#45;&gt;code_block</title>
<path fill="none" stroke="#8d8d8d" stroke-width="2" stroke-dasharray="1,5" d="M1160.92,-516.08C1196.27,-544.48 1238.76,-572.27 1283,-587 1402.13,-626.66 3420.75,-615.62 3543,-587 3602.57,-573.05 3663.74,-546.5 3716.71,-518.92"/>
<ellipse fill="none" stroke="#8d8d8d" stroke-width="2" cx="3719.48" cy="-517.47" rx="3" ry="3"/>
<polygon fill="#18191b" fill-opacity="0.627451" stroke="transparent" points="2666,-604 2666,-625 2738,-625 2738,-604 2666,-604"/>
<text text-anchor="start" x="2669" y="-610.3" font-family="Arial" font-size="14.00" fill="#c9c9c9">CodeBlock</text>
</g>
<!-- features&#45;&gt;snippets -->
<g id="edge14" class="edge">
<title>features&#45;&gt;snippets</title>
<path fill="none" stroke="#8d8d8d" stroke-width="2" stroke-dasharray="1,5" d="M1206.77,-335.96C1231.66,-321.67 1257.73,-307.74 1283,-296 1421.94,-231.47 1587.13,-176.52 1708.97,-139.8"/>
<ellipse fill="none" stroke="#8d8d8d" stroke-width="2" cx="1711.87" cy="-138.93" rx="3" ry="3"/>
<polygon fill="#18191b" fill-opacity="0.627451" stroke="transparent" points="1411,-247.5 1411,-268.5 1468,-268.5 1468,-247.5 1411,-247.5"/>
<text text-anchor="start" x="1414.5" y="-253.8" font-family="Arial" font-size="14.00" fill="#c9c9c9">snippets</text>
</g>
<!-- footer&#45;&gt;version -->
<g id="edge15" class="edge">
<title>footer&#45;&gt;version</title>
<path fill="none" stroke="#8d8d8d" stroke-width="2" d="M5565.38,-335.99C5538.9,-320.96 5510.69,-306.77 5483,-296 5207.03,-188.67 4865.5,-134.25 4660.33,-109.31"/>
<polygon fill="#8d8d8d" stroke="#8d8d8d" stroke-width="2" points="4652.78,-108.39 4660.63,-105.94 4656.56,-108.35 4660.29,-108.8 4660.23,-109.29 4660.17,-109.79 4656.44,-109.34 4659.82,-112.64 4652.78,-108.39 4652.78,-108.39"/>
<polygon fill="#18191b" fill-opacity="0.627451" stroke="transparent" points="5405,-247.5 5405,-268.5 5451,-268.5 5451,-247.5 5405,-247.5"/>
<text text-anchor="start" x="5408" y="-253.8" font-family="Arial" font-size="14.00" fill="#c9c9c9">is_dev</text>
</g>
<!-- hero&#45;&gt;icons_ -->
<g id="edge16" class="edge">
<title>hero&#45;&gt;icons_</title>
<path fill="none" stroke="#8d8d8d" stroke-width="2" stroke-dasharray="1,5" d="M4888.19,-426C4955.5,-426 5033.79,-426 5101.73,-426"/>
<ellipse fill="none" stroke="#8d8d8d" stroke-width="2" cx="5104.86" cy="-426" rx="3" ry="3"/>
<polygon fill="#18191b" fill-opacity="0.627451" stroke="transparent" points="4962.5,-429 4962.5,-450 5033.5,-450 5033.5,-429 4962.5,-429"/>
<text text-anchor="start" x="4966" y="-435.3" font-family="Arial" font-size="14.00" fill="#c9c9c9">Icon, icons</text>
</g>
<!-- hero&#45;&gt;version -->
<g id="edge17" class="edge">
<title>hero&#45;&gt;version</title>
<path fill="none" stroke="#8d8d8d" stroke-width="2" d="M4661.6,-335.93C4627.2,-289.79 4585.17,-233.41 4550.11,-186.38"/>
<polygon fill="#8d8d8d" stroke="#8d8d8d" stroke-width="2" points="4545.43,-180.11 4552.62,-184.1 4548.07,-182.82 4550.31,-185.82 4549.91,-186.12 4549.51,-186.42 4547.27,-183.41 4547.21,-188.14 4545.43,-180.11 4545.43,-180.11"/>
<polygon fill="#18191b" fill-opacity="0.627451" stroke="transparent" points="4610,-247.5 4610,-268.5 4656,-268.5 4656,-247.5 4610,-247.5"/>
<text text-anchor="start" x="4613" y="-253.8" font-family="Arial" font-size="14.00" fill="#c9c9c9">is_dev</text>
</g>
<!-- how_it_works&#45;&gt;code_tabs -->
<g id="edge18" class="edge">
<title>how_it_works&#45;&gt;code_tabs</title>
<path fill="none" stroke="#8d8d8d" stroke-width="2" stroke-dasharray="1,5" d="M1658.19,-426C1725.5,-426 1803.79,-426 1871.73,-426"/>
<ellipse fill="none" stroke="#8d8d8d" stroke-width="2" cx="1874.86" cy="-426" rx="3" ry="3"/>
<polygon fill="#18191b" fill-opacity="0.627451" stroke="transparent" points="1734.5,-429 1734.5,-450 1801.5,-450 1801.5,-429 1734.5,-429"/>
<text text-anchor="start" x="1738" y="-435.3" font-family="Arial" font-size="14.00" fill="#c9c9c9">CodeTabs</text>
</g>
<!-- how_it_works&#45;&gt;snippets -->
<g id="edge19" class="edge">
<title>how_it_works&#45;&gt;snippets</title>
<path fill="none" stroke="#8d8d8d" stroke-width="2" stroke-dasharray="1,5" d="M1600.67,-335.93C1654.72,-289.04 1720.97,-231.57 1775.7,-184.09"/>
<ellipse fill="none" stroke="#8d8d8d" stroke-width="2" cx="1778.02" cy="-182.07" rx="3" ry="3"/>
<polygon fill="#18191b" fill-opacity="0.627451" stroke="transparent" points="1702,-247.5 1702,-268.5 1759,-268.5 1759,-247.5 1702,-247.5"/>
<text text-anchor="start" x="1705.5" y="-253.8" font-family="Arial" font-size="14.00" fill="#c9c9c9">snippets</text>
</g>
<!-- install&#45;&gt;code_block -->
<g id="edge20" class="edge">
<title>install&#45;&gt;code_block</title>
<path fill="none" stroke="#8d8d8d" stroke-width="2" stroke-dasharray="1,5" d="M3488.19,-426C3555.5,-426 3633.79,-426 3701.73,-426"/>
<ellipse fill="none" stroke="#8d8d8d" stroke-width="2" cx="3704.86" cy="-426" rx="3" ry="3"/>
<polygon fill="#18191b" fill-opacity="0.627451" stroke="transparent" points="3562,-429 3562,-450 3634,-450 3634,-429 3562,-429"/>
<text text-anchor="start" x="3565" y="-435.3" font-family="Arial" font-size="14.00" fill="#c9c9c9">CodeBlock</text>
</g>
<!-- install&#45;&gt;snippets -->
<g id="edge21" class="edge">
<title>install&#45;&gt;snippets</title>
<path fill="none" stroke="#8d8d8d" stroke-width="2" stroke-dasharray="1,5" d="M3273.08,-335.88C3246.25,-300.09 3210.71,-262.14 3169,-240 2980.35,-139.84 2362.94,-106.27 2057.43,-95.63"/>
<ellipse fill="none" stroke="#8d8d8d" stroke-width="2" cx="2054.16" cy="-95.51" rx="3" ry="3"/>
<polygon fill="#18191b" fill-opacity="0.627451" stroke="transparent" points="3217,-247.5 3217,-268.5 3274,-268.5 3274,-247.5 3217,-247.5"/>
<text text-anchor="start" x="3220.5" y="-253.8" font-family="Arial" font-size="14.00" fill="#c9c9c9">snippets</text>
</g>
<!-- install&#45;&gt;version -->
<g id="edge22" class="edge">
<title>install&#45;&gt;version</title>
<path fill="none" stroke="#8d8d8d" stroke-width="2" d="M3488.03,-356.52C3540.11,-335.58 3598.52,-313.48 3653,-296 3871.68,-225.82 4129.33,-165.28 4298,-128.56"/>
<polygon fill="#8d8d8d" stroke="#8d8d8d" stroke-width="2" points="4305.46,-126.93 4298.85,-131.83 4301.9,-128.22 4298.24,-129.02 4298.13,-128.53 4298.02,-128.04 4301.69,-127.24 4297.41,-125.23 4305.46,-126.93 4305.46,-126.93"/>
<polygon fill="#18191b" fill-opacity="0.627451" stroke="transparent" points="3831,-247.5 3831,-268.5 3877,-268.5 3877,-247.5 3831,-247.5"/>
<text text-anchor="start" x="3834" y="-253.8" font-family="Arial" font-size="14.00" fill="#c9c9c9">is_dev</text>
</g>
<!-- roadmap&#45;&gt;version -->
<g id="edge24" class="edge">
<title>roadmap&#45;&gt;version</title>
<path fill="none" stroke="#8d8d8d" stroke-width="2" d="M5998.2,-335.97C5971.01,-320.56 5941.82,-306.23 5913,-296 5481.27,-142.7 4937.84,-103.77 4660.3,-94.06"/>
<polygon fill="#8d8d8d" stroke="#8d8d8d" stroke-width="2" points="4652.57,-93.8 4660.18,-90.68 4656.34,-93.43 4660.08,-93.56 4660.07,-94.06 4660.05,-94.56 4656.3,-94.43 4659.95,-97.43 4652.57,-93.8 4652.57,-93.8"/>
<polygon fill="#18191b" fill-opacity="0.627451" stroke="transparent" points="5839,-247.5 5839,-268.5 5954,-268.5 5954,-247.5 5839,-247.5"/>
<text text-anchor="start" x="5842.5" y="-253.8" font-family="Arial" font-size="14.00" fill="#c9c9c9">fetch_json, is_dev</text>
</g>
<!-- roadmap&#45;&gt;roadmap_1 -->
<g id="edge23" class="edge">
<title>roadmap&#45;&gt;roadmap_1</title>
<path fill="none" stroke="#8d8d8d" stroke-width="2" d="M6128,-335.93C6128,-290.26 6128,-234.56 6128,-187.83"/>
<polygon fill="#8d8d8d" stroke="#8d8d8d" stroke-width="2" points="6128,-180.11 6131.38,-187.61 6128.5,-183.86 6128.5,-187.61 6128,-187.61 6127.5,-187.61 6127.5,-183.86 6124.63,-187.61 6128,-180.11 6128,-180.11"/>
<polygon fill="#18191b" fill-opacity="0.627451" stroke="transparent" points="6128,-240 6128,-276 6333,-276 6333,-240 6128,-240"/>
<text text-anchor="start" x="6131.5" y="-261.8" font-family="Arial" font-size="14.00" fill="#c9c9c9">Horizon, Item, Roadmap, Status,</text>
<text text-anchor="start" x="6131.5" y="-246.8" font-family="Arial" font-size="14.00" fill="#c9c9c9">current_url, roadmap, says_main</text>
</g>
<!-- version_switcher&#45;&gt;version -->
<g id="edge25" class="edge">
<title>version_switcher&#45;&gt;version</title>
<path fill="none" stroke="#8d8d8d" stroke-width="2" d="M2885.43,-335.58C2885.74,-301.27 2893.18,-264.52 2918,-240 3014.54,-144.66 3907.43,-107.45 4297.78,-95.65"/>
<polygon fill="#8d8d8d" stroke="#8d8d8d" stroke-width="2" points="4305.48,-95.42 4298.09,-99.02 4301.75,-96.03 4298,-96.15 4297.98,-95.65 4297.97,-95.15 4301.72,-95.03 4297.88,-92.27 4305.48,-95.42 4305.48,-95.42"/>
<polygon fill="#18191b" fill-opacity="0.627451" stroke="transparent" points="2918,-240 2918,-276 3142,-276 3142,-240 2918,-240"/>
<text text-anchor="start" x="2921" y="-261.8" font-family="Arial" font-size="14.00" fill="#c9c9c9">SITE_VERSION, fetch_json, is_dev,</text>
<text text-anchor="start" x="2921" y="-246.8" font-family="Arial" font-size="14.00" fill="#c9c9c9">manifest_url, snapshot_url</text>
</g>
<!-- feature_card&#45;&gt;version -->
<g id="edge26" class="edge">
<title>feature_card&#45;&gt;version</title>
<path fill="none" stroke="#8d8d8d" stroke-width="2" d="M4346.27,-335.93C4371.17,-289.98 4401.57,-233.87 4427,-186.96"/>
<polygon fill="#8d8d8d" stroke="#8d8d8d" stroke-width="2" points="4430.71,-180.11 4430.1,-188.31 4429.36,-183.64 4427.58,-186.94 4427.14,-186.7 4426.7,-186.46 4428.48,-183.17 4424.17,-185.09 4430.71,-180.11 4430.71,-180.11"/>
<polygon fill="#18191b" fill-opacity="0.627451" stroke="transparent" points="4393,-247.5 4393,-268.5 4439,-268.5 4439,-247.5 4393,-247.5"/>
<text text-anchor="start" x="4396" y="-253.8" font-family="Arial" font-size="14.00" fill="#c9c9c9">is_dev</text>
</g>
<!-- app&#45;&gt;dogfood_banner -->
<g id="edge1" class="edge">
<title>app&#45;&gt;dogfood_banner</title>
<path fill="none" stroke="#8d8d8d" stroke-width="2" stroke-dasharray="1,5" d="M2737.83,-760.29C2433.63,-734.22 1751.34,-675.57 1177,-625 1032.98,-612.32 987.38,-649.32 853,-596 809.29,-578.66 767.21,-549.43 732.06,-520.12"/>
<ellipse fill="none" stroke="#8d8d8d" stroke-width="2" cx="729.66" cy="-518.1" rx="3" ry="3"/>
<polygon fill="#18191b" fill-opacity="0.627451" stroke="transparent" points="1177,-604 1177,-625 1278,-625 1278,-604 1177,-604"/>
<text text-anchor="start" x="1180.5" y="-610.3" font-family="Arial" font-size="14.00" fill="#c9c9c9">DogfoodBanner</text>
</g>
<!-- app&#45;&gt;example -->
<g id="edge2" class="edge">
<title>app&#45;&gt;example</title>
<path fill="none" stroke="#8d8d8d" stroke-width="2" stroke-dasharray="1,5" d="M2737.89,-759.48C2647.23,-742.31 2540.23,-705.14 2480,-625 2458.29,-596.11 2452.36,-557.64 2452.92,-522.3"/>
<ellipse fill="none" stroke="#8d8d8d" stroke-width="2" cx="2453.01" cy="-519.19" rx="3" ry="3"/>
<polygon fill="#18191b" fill-opacity="0.627451" stroke="transparent" points="2480,-604 2480,-625 2540,-625 2540,-604 2480,-604"/>
<text text-anchor="start" x="2483" y="-610.3" font-family="Arial" font-size="14.00" fill="#c9c9c9">Example</text>
</g>
<!-- app&#45;&gt;features -->
<g id="edge3" class="edge">
<title>app&#45;&gt;features</title>
<path fill="none" stroke="#8d8d8d" stroke-width="2" stroke-dasharray="1,5" d="M2737.79,-767.51C2383.48,-751.36 1544.2,-702.75 1283,-596 1239.68,-578.29 1197.84,-549.17 1162.77,-520.04"/>
<ellipse fill="none" stroke="#8d8d8d" stroke-width="2" cx="1160.39" cy="-518.04" rx="3" ry="3"/>
<polygon fill="#18191b" fill-opacity="0.627451" stroke="transparent" points="1353,-604 1353,-625 1413,-625 1413,-604 1353,-604"/>
<text text-anchor="start" x="1356" y="-610.3" font-family="Arial" font-size="14.00" fill="#c9c9c9">Features</text>
</g>
<!-- app&#45;&gt;footer -->
<g id="edge4" class="edge">
<title>app&#45;&gt;footer</title>
<path fill="none" stroke="#8d8d8d" stroke-width="2" stroke-dasharray="1,5" d="M3058.31,-768.45C3587.42,-749.37 5257.35,-682.86 5483,-596 5527.21,-578.98 5569.61,-549.56 5604.91,-519.99"/>
<ellipse fill="none" stroke="#8d8d8d" stroke-width="2" cx="5607.33" cy="-517.94" rx="3" ry="3"/>
<polygon fill="#18191b" fill-opacity="0.627451" stroke="transparent" points="5441,-604 5441,-625 5487,-625 5487,-604 5441,-604"/>
<text text-anchor="start" x="5444" y="-610.3" font-family="Arial" font-size="14.00" fill="#c9c9c9">Footer</text>
</g>
<!-- app&#45;&gt;hero -->
<g id="edge5" class="edge">
<title>app&#45;&gt;hero</title>
<path fill="none" stroke="#8d8d8d" stroke-width="2" stroke-dasharray="1,5" d="M3058.21,-767.51C3412.52,-751.36 4251.8,-702.75 4513,-596 4556.32,-578.29 4598.16,-549.17 4633.23,-520.04"/>
<ellipse fill="none" stroke="#8d8d8d" stroke-width="2" cx="4635.61" cy="-518.04" rx="3" ry="3"/>
<polygon fill="#18191b" fill-opacity="0.627451" stroke="transparent" points="4491,-604 4491,-625 4527,-625 4527,-604 4491,-604"/>
<text text-anchor="start" x="4494" y="-610.3" font-family="Arial" font-size="14.00" fill="#c9c9c9">Hero</text>
</g>
<!-- app&#45;&gt;how_it_works -->
<g id="edge6" class="edge">
<title>app&#45;&gt;how_it_works</title>
<path fill="none" stroke="#8d8d8d" stroke-width="2" stroke-dasharray="1,5" d="M2737.56,-763.26C2524.09,-745.44 2137.06,-700.71 1823,-596 1764.53,-576.51 1703.74,-547.55 1650.78,-519.09"/>
<ellipse fill="none" stroke="#8d8d8d" stroke-width="2" cx="1647.99" cy="-517.58" rx="3" ry="3"/>
<polygon fill="#18191b" fill-opacity="0.627451" stroke="transparent" points="1907,-604 1907,-625 1986,-625 1986,-604 1907,-604"/>
<text text-anchor="start" x="1910.5" y="-610.3" font-family="Arial" font-size="14.00" fill="#c9c9c9">HowItWorks</text>
</g>
<!-- app&#45;&gt;install -->
<g id="edge7" class="edge">
<title>app&#45;&gt;install</title>
<path fill="none" stroke="#8d8d8d" stroke-width="2" stroke-dasharray="1,5" d="M3055.3,-684.83C3084.05,-666.3 3113.11,-645.99 3139,-625 3177.33,-593.93 3215.66,-555.48 3247.69,-520.76"/>
<ellipse fill="none" stroke="#8d8d8d" stroke-width="2" cx="3249.93" cy="-518.32" rx="3" ry="3"/>
<polygon fill="#18191b" fill-opacity="0.627451" stroke="transparent" points="3161,-604 3161,-625 3203,-625 3203,-604 3161,-604"/>
<text text-anchor="start" x="3164" y="-610.3" font-family="Arial" font-size="14.00" fill="#c9c9c9">Install</text>
</g>
<!-- app&#45;&gt;roadmap -->
<g id="edge8" class="edge">
<title>app&#45;&gt;roadmap</title>
<path fill="none" stroke="#8d8d8d" stroke-width="2" stroke-dasharray="1,5" d="M3058.05,-765.76C3467.07,-744.51 4583.97,-685.28 5514,-625 5691.43,-613.5 5747.19,-660.19 5913,-596 5957.07,-578.94 5999.37,-549.6 6034.62,-520.11"/>
<ellipse fill="none" stroke="#8d8d8d" stroke-width="2" cx="6037.03" cy="-518.07" rx="3" ry="3"/>
<polygon fill="#18191b" fill-opacity="0.627451" stroke="transparent" points="5884,-604 5884,-625 5950,-625 5950,-604 5884,-604"/>
<text text-anchor="start" x="5887" y="-610.3" font-family="Arial" font-size="14.00" fill="#c9c9c9">Roadmap</text>
</g>
<!-- app&#45;&gt;version_switcher -->
<g id="edge9" class="edge">
<title>app&#45;&gt;version_switcher</title>
<path fill="none" stroke="#8d8d8d" stroke-width="2" stroke-dasharray="1,5" d="M2898,-684.64C2898,-634.85 2898,-572.87 2898,-522.18"/>
<ellipse fill="none" stroke="#8d8d8d" stroke-width="2" cx="2898" cy="-519.06" rx="3" ry="3"/>
<polygon fill="#18191b" fill-opacity="0.627451" stroke="transparent" points="2898,-604 2898,-625 3001,-625 3001,-604 2898,-604"/>
<text text-anchor="start" x="2901.5" y="-610.3" font-family="Arial" font-size="14.00" fill="#c9c9c9">VersionSwitcher</text>
</g>
</g>
</svg>
