<?xml version="1.0" encoding="UTF-8" standalone="no"?>
<!DOCTYPE svg PUBLIC "-//W3C//DTD SVG 1.1//EN"
 "http://www.w3.org/Graphics/SVG/1.1/DTD/svg11.dtd">
<!-- Generated by graphviz version 2.43.0 (0)
 -->
<!-- Title: %3 Pages: 1 -->
<svg width="3086pt" height="2208pt"
 viewBox="0.00 0.00 3086.10 2208.10" xmlns="http://www.w3.org/2000/svg" xmlns:xlink="http://www.w3.org/1999/xlink">
<g id="graph0" class="graph" transform="scale(1 1) rotate(0) translate(15.05 2193.05)">
<title>%3</title>
<g id="clust1" class="cluster">
<title>cluster_asbuilt_rust</title>
<polygon fill="#b5582a" stroke="#7a4d37" points="8,-607 8,-2170 2604,-2170 2604,-607 8,-607"/>
<text text-anchor="start" x="16" y="-2158.2" font-family="Arial" font-weight="bold" font-size="11.00" fill="#310000" fill-opacity="0.701961">ASBUILT&#45;RUST</text>
</g>
<g id="clust2" class="cluster">
<title>cluster_asbuilt_core</title>
<polygon fill="#b5582a" stroke="#7a4d37" points="2191,-8 2191,-599 2607,-599 2607,-8 2191,-8"/>
<text text-anchor="start" x="2199" y="-587.2" font-family="Arial" font-weight="bold" font-size="11.00" fill="#310000" fill-opacity="0.701961">ASBUILT&#45;CORE</text>
</g>
<!-- aggregate -->
<g id="node1" class="node">
<title>aggregate</title>
<polygon fill="#3b82f6" stroke="#2563eb" stroke-width="0" points="396.5,-1530 56.5,-1530 56.5,-1350 396.5,-1350 396.5,-1530"/>
<text text-anchor="start" x="181" y="-1479" font-family="Arial" font-size="20.00" fill="#eff6ff">aggregate</text>
<text text-anchor="start" x="76.5" y="-1457" font-family="Arial" font-size="15.00" fill="#bfdbfe">From resolved references to model relations:</text>
<text text-anchor="start" x="153" y="-1440" font-family="Arial" font-size="15.00" fill="#bfdbfe">element ids per target</text>
<text text-anchor="start" x="88.5" y="-1423" font-family="Arial" font-size="15.00" fill="#bfdbfe">role, one relation per (source, target) pair</text>
<text text-anchor="start" x="167" y="-1406" font-family="Arial" font-size="15.00" fill="#bfdbfe">with the strongest</text>
<text text-anchor="start" x="77.5" y="-1389" font-family="Arial" font-size="15.00" fill="#bfdbfe">kind and the sorted item names, and nothing</text>
</g>
<!-- tests -->
<g id="node2" class="node">
<title>tests</title>
<polygon fill="#3b82f6" stroke="#2563eb" stroke-width="0" points="1730.5,-827 1410.5,-827 1410.5,-647 1730.5,-647 1730.5,-827"/>
<text text-anchor="start" x="1549.5" y="-732" font-family="Arial" font-size="20.00" fill="#eff6ff">tests</text>
</g>
<!-- resolve -->
<g id="node3" class="node">
<title>resolve</title>
<polygon fill="#3b82f6" stroke="#2563eb" stroke-width="0" points="1064,-1662 738,-1662 738,-1482 1064,-1482 1064,-1662"/>
<text text-anchor="start" x="868.5" y="-1611" font-family="Arial" font-size="20.00" fill="#eff6ff">resolve</text>
<text text-anchor="start" x="761.5" y="-1589" font-family="Arial" font-size="15.00" fill="#bfdbfe">Path resolution over an in&#45;memory tree of</text>
<text text-anchor="start" x="809" y="-1572" font-family="Arial" font-size="15.00" fill="#bfdbfe">targets and modules: which</text>
<text text-anchor="start" x="758" y="-1555" font-family="Arial" font-size="15.00" fill="#bfdbfe">module, and which item in it, a path written</text>
<text text-anchor="start" x="826" y="-1538" font-family="Arial" font-size="15.00" fill="#bfdbfe">in some module refers</text>
<text text-anchor="start" x="761.5" y="-1521" font-family="Arial" font-size="15.00" fill="#bfdbfe">to. Pure functions; the tests build trees by</text>
</g>
<!-- discover -->
<g id="node4" class="node">
<title>discover</title>
<polygon fill="#3b82f6" stroke="#2563eb" stroke-width="0" points="2559,-1028 2239,-1028 2239,-848 2559,-848 2559,-1028"/>
<text text-anchor="start" x="2361.5" y="-977" font-family="Arial" font-size="20.00" fill="#eff6ff">discover</text>
<text text-anchor="start" x="2276" y="-955" font-family="Arial" font-size="15.00" fill="#bfdbfe">Crates and their targets, from `cargo</text>
<text text-anchor="start" x="2303" y="-938" font-family="Arial" font-size="15.00" fill="#bfdbfe">metadata &#45;&#45;no&#45;deps &#45;&#45;offline`</text>
<text text-anchor="start" x="2266" y="-921" font-family="Arial" font-size="15.00" fill="#bfdbfe">on the root manifest and on each `[rust]</text>
<text text-anchor="start" x="2322" y="-904" font-family="Arial" font-size="15.00" fill="#bfdbfe">extra_manifests` entry.</text>
<text text-anchor="start" x="2277" y="-887" font-family="Arial" font-size="15.00" fill="#bfdbfe">`&#45;&#45;no&#45;deps` reads manifests only: no</text>
</g>
<!-- visit -->
<g id="node5" class="node">
<title>visit</title>
<polygon fill="#3b82f6" stroke="#2563eb" stroke-width="0" points="1742,-1329 1399,-1329 1399,-1149 1742,-1149 1742,-1329"/>
<text text-anchor="start" x="1554" y="-1278" font-family="Arial" font-size="20.00" fill="#eff6ff">visit</text>
<text text-anchor="start" x="1419.5" y="-1256" font-family="Arial" font-size="15.00" fill="#bfdbfe">What one parsed file references, per module:</text>
<text text-anchor="start" x="1510" y="-1239" font-family="Arial" font-size="15.00" fill="#bfdbfe">every `use`, every</text>
<text text-anchor="start" x="1427" y="-1222" font-family="Arial" font-size="15.00" fill="#bfdbfe">path in a type, expression or pattern, every</text>
<text text-anchor="start" x="1507.5" y="-1205" font-family="Arial" font-size="15.00" fill="#bfdbfe">`impl Trait for`, and</text>
<text text-anchor="start" x="1426.5" y="-1188" font-family="Arial" font-size="15.00" fill="#bfdbfe">the names the module defines. Pure over a</text>
</g>
<!-- config -->
<g id="node6" class="node">
<title>config</title>
<polygon fill="#3b82f6" stroke="#2563eb" stroke-width="0" points="386.5,-847 66.5,-847 66.5,-667 386.5,-667 386.5,-847"/>
<text text-anchor="start" x="200" y="-762" font-family="Arial" font-size="20.00" fill="#eff6ff">config</text>
<text text-anchor="start" x="114.5" y="-740" font-family="Arial" font-size="15.00" fill="#bfdbfe">The `[rust]` table of `asbuilt.toml`.</text>
</g>
<!-- walk -->
<g id="node7" class="node">
<title>walk</title>
<polygon fill="#3b82f6" stroke="#2563eb" stroke-width="0" points="2564,-1771 2234,-1771 2234,-1591 2564,-1591 2564,-1771"/>
<text text-anchor="start" x="2379" y="-1720" font-family="Arial" font-size="20.00" fill="#eff6ff">walk</text>
<text text-anchor="start" x="2254" y="-1698" font-family="Arial" font-size="15.00" fill="#bfdbfe">The module tree of one target, from its root</text>
<text text-anchor="start" x="2326.5" y="-1681" font-family="Arial" font-size="15.00" fill="#bfdbfe">file down every `mod`</text>
<text text-anchor="start" x="2265" y="-1664" font-family="Arial" font-size="15.00" fill="#bfdbfe">declaration. Follows `mod x;` to `x.rs` or</text>
<text text-anchor="start" x="2337" y="-1647" font-family="Arial" font-size="15.00" fill="#bfdbfe">`x/mod.rs`, honors</text>
<text text-anchor="start" x="2271" y="-1630" font-family="Arial" font-size="15.00" fill="#bfdbfe">`#[path]`, enters inline `mod x { }`, and</text>
</g>
<!-- error -->
<g id="node8" class="node">
<title>error</title>
<polygon fill="#3b82f6" stroke="#2563eb" stroke-width="0" points="397.5,-1820 55.5,-1820 55.5,-1640 397.5,-1640 397.5,-1820"/>
<text text-anchor="start" x="205" y="-1752" font-family="Arial" font-size="20.00" fill="#eff6ff">error</text>
<text text-anchor="start" x="75.5" y="-1730" font-family="Arial" font-size="15.00" fill="#bfdbfe">What the Rust front&#45;end can get wrong, each</text>
<text text-anchor="start" x="163" y="-1713" font-family="Arial" font-size="15.00" fill="#bfdbfe">naming the path or</text>
<text text-anchor="start" x="170.5" y="-1696" font-family="Arial" font-size="15.00" fill="#bfdbfe">module involved.</text>
</g>
<!-- source -->
<g id="node9" class="node">
<title>source</title>
<polygon fill="#3b82f6" stroke="#2563eb" stroke-width="0" points="405,-2110 48,-2110 48,-1930 405,-1930 405,-2110"/>
<text text-anchor="start" x="196.5" y="-2051" font-family="Arial" font-size="20.00" fill="#eff6ff">source</text>
<text text-anchor="start" x="68.5" y="-2029" font-family="Arial" font-size="15.00" fill="#bfdbfe">Where source text comes from. The walk reads</text>
<text text-anchor="start" x="162" y="-2012" font-family="Arial" font-size="15.00" fill="#bfdbfe">through this trait so</text>
<text text-anchor="start" x="70" y="-1995" font-family="Arial" font-size="15.00" fill="#bfdbfe">its tests run over an in&#45;memory map and never</text>
<text text-anchor="start" x="184.5" y="-1978" font-family="Arial" font-size="15.00" fill="#bfdbfe">touch a disk.</text>
</g>
<!-- frontend -->
<g id="node10" class="node">
<title>frontend</title>
<polygon fill="#3b82f6" stroke="#2563eb" stroke-width="0" points="2567,-539 2231,-539 2231,-359 2567,-359 2567,-539"/>
<text text-anchor="start" x="2362" y="-480" font-family="Arial" font-size="20.00" fill="#eff6ff">frontend</text>
<text text-anchor="start" x="2257.5" y="-458" font-family="Arial" font-size="15.00" fill="#bfdbfe">The front&#45;end contract and the survey that</text>
<text text-anchor="start" x="2331" y="-441" font-family="Arial" font-size="15.00" fill="#bfdbfe">runs every front&#45;end</text>
<text text-anchor="start" x="2251" y="-424" font-family="Arial" font-size="15.00" fill="#bfdbfe">that recognizes a root, merges their models,</text>
<text text-anchor="start" x="2323.5" y="-407" font-family="Arial" font-size="15.00" fill="#bfdbfe">and applies the config.</text>
</g>
<!-- model -->
<g id="node11" class="node">
<title>model</title>
<polygon fill="#3b82f6" stroke="#2563eb" stroke-width="0" points="2559,-228 2239,-228 2239,-48 2559,-48 2559,-228"/>
<text text-anchor="start" x="2372" y="-160" font-family="Arial" font-size="20.00" fill="#eff6ff">model</text>
<text text-anchor="start" x="2269" y="-138" font-family="Arial" font-size="15.00" fill="#bfdbfe">The architecture model every front&#45;end</text>
<text text-anchor="start" x="2315.5" y="-121" font-family="Arial" font-size="15.00" fill="#bfdbfe">produces and the emitter</text>
<text text-anchor="start" x="2363" y="-104" font-family="Arial" font-size="15.00" fill="#bfdbfe">consumes.</text>
</g>
<!-- cargo -->
<g id="node12" class="node">
<title>cargo</title>
<polygon fill="#d4d4d4" stroke="#acacac" stroke-width="0" points="3056,-1028 2720,-1028 2720,-848 3056,-848 3056,-1028"/>
<text text-anchor="start" x="2818.5" y="-969" font-family="Arial" font-size="20.00" fill="#383838">cargo metadata</text>
<text text-anchor="start" x="2834.5" y="-948.6" font-family="Arial" font-size="13.00" fill="#494949">cargo subprocess</text>
<text text-anchor="start" x="2740" y="-929" font-family="Arial" font-size="15.00" fill="#494949">Lists the workspace&#39;s packages and targets;</text>
<text text-anchor="start" x="2768" y="-912" font-family="Arial" font-size="15.00" fill="#494949">`&#45;&#45;no&#45;deps &#45;&#45;offline`, so no lockfile is</text>
<text text-anchor="start" x="2859" y="-895" font-family="Arial" font-size="15.00" fill="#494949">touched.</text>
</g>
<!-- aggregate&#45;&gt;resolve -->
<g id="edge1" class="edge">
<title>aggregate&#45;&gt;resolve</title>
<path fill="none" stroke="#8d8d8d" stroke-width="2" stroke-dasharray="5,2" d="M396.77,-1473.22C498.78,-1493.25 628.28,-1518.67 730.36,-1538.7"/>
<polygon fill="#8d8d8d" stroke="#8d8d8d" stroke-width="2" points="730.11,-1541.33 737.97,-1540.2 731.12,-1536.18 730.11,-1541.33"/>
<polygon fill="#18191b" fill-opacity="0.627451" stroke="transparent" points="465,-1525 465,-1561 678,-1561 678,-1525 465,-1525"/>
<text text-anchor="start" x="468.5" y="-1546.8" font-family="Arial" font-size="14.00" fill="#c9c9c9">Location, ResolveTree, TargetKey,</text>
<text text-anchor="start" x="468.5" y="-1531.8" font-family="Arial" font-size="14.00" fill="#c9c9c9">TargetRole, resolve</text>
</g>
<!-- aggregate&#45;&gt;visit -->
<g id="edge2" class="edge">
<title>aggregate&#45;&gt;visit</title>
<path fill="none" stroke="#8d8d8d" stroke-width="2" stroke-dasharray="5,2" d="M369.02,-1349.98C468.06,-1292.51 605.8,-1223.3 738,-1193 958.96,-1142.35 1221.17,-1171 1391.22,-1200.81"/>
<polygon fill="#8d8d8d" stroke="#8d8d8d" stroke-width="2" points="1390.9,-1203.42 1398.74,-1202.14 1391.81,-1198.25 1390.9,-1203.42"/>
<polygon fill="#18191b" fill-opacity="0.627451" stroke="transparent" points="858.5,-1193 858.5,-1214 943.5,-1214 943.5,-1193 858.5,-1193"/>
<text text-anchor="start" x="862" y="-1199.3" font-family="Arial" font-size="14.00" fill="#c9c9c9">ModuleFacts</text>
</g>
<!-- aggregate&#45;&gt;walk -->
<g id="edge3" class="edge">
<title>aggregate&#45;&gt;walk</title>
<path fill="none" stroke="#8d8d8d" stroke-width="2" stroke-dasharray="5,2" d="M347.42,-1530.07C446.26,-1597.88 593.25,-1684.52 738,-1717 879.37,-1748.72 927.03,-1764.26 1064,-1717 1096.02,-1705.95 1091.98,-1681.05 1124,-1670 1214.33,-1638.83 1243.45,-1669.5 1339,-1670 1651.84,-1671.62 2016.63,-1675.95 2226.13,-1678.67"/>
<polygon fill="#8d8d8d" stroke="#8d8d8d" stroke-width="2" points="2226.29,-1681.29 2233.82,-1678.77 2226.36,-1676.04 2226.29,-1681.29"/>
<polygon fill="#18191b" fill-opacity="0.627451" stroke="transparent" points="1192,-1670 1192,-1691 1271,-1691 1271,-1670 1192,-1670"/>
<text text-anchor="start" x="1195.5" y="-1676.3" font-family="Arial" font-size="14.00" fill="#c9c9c9">ModulePath</text>
</g>
<!-- aggregate&#45;&gt;model -->
<g id="edge4" class="edge">
<title>aggregate&#45;&gt;model</title>
<path fill="none" stroke="#8d8d8d" stroke-width="2" stroke-dasharray="5,2" d="M270.58,-1349.77C346.13,-1199.99 515.81,-898.59 738,-717 1195.4,-343.18 1909.97,-203.65 2231.45,-157.82"/>
<polygon fill="#8d8d8d" stroke="#8d8d8d" stroke-width="2" points="2231.91,-160.41 2238.97,-156.76 2231.17,-155.21 2231.91,-160.41"/>
<polygon fill="#18191b" fill-opacity="0.627451" stroke="transparent" points="1124,-474 1124,-495 1339,-495 1339,-474 1124,-474"/>
<text text-anchor="start" x="1127.5" y="-480.3" font-family="Arial" font-size="14.00" fill="#c9c9c9">Id, Relation, RelationKind, is_lineal</text>
</g>
<!-- tests&#45;&gt;discover -->
<g id="edge5" class="edge">
<title>tests&#45;&gt;discover</title>
<path fill="none" stroke="#8d8d8d" stroke-width="2" stroke-dasharray="5,2" d="M1730.65,-763.38C1852.26,-784.98 2023.51,-818.52 2171,-859 2190.8,-864.43 2211.37,-870.7 2231.69,-877.27"/>
<polygon fill="#8d8d8d" stroke="#8d8d8d" stroke-width="2" points="2230.92,-879.78 2238.86,-879.61 2232.54,-874.79 2230.92,-879.78"/>
<polygon fill="#18191b" fill-opacity="0.627451" stroke="transparent" points="1802,-859 1802,-910 2171,-910 2171,-859 1802,-859"/>
<text text-anchor="start" x="1805.5" y="-895.3" font-family="Arial" font-size="14.00" fill="#c9c9c9">TECHNOLOGY_BINARY, TECHNOLOGY_LIBRARY,</text>
<text text-anchor="start" x="1805.5" y="-880.3" font-family="Arial" font-size="14.00" fill="#c9c9c9">TECHNOLOGY_PROC_MACRO, TECHNOLOGY_TESTS,</text>
<text text-anchor="start" x="1805.5" y="-865.3" font-family="Arial" font-size="14.00" fill="#c9c9c9">TargetKind, discover</text>
</g>
<!-- tests&#45;&gt;config -->
<g id="edge6" class="edge">
<title>tests&#45;&gt;config</title>
<path fill="none" stroke="#8d8d8d" stroke-width="2" stroke-dasharray="5,2" d="M1410.49,-739.37C1154.87,-743.18 654.88,-750.63 394.35,-754.51"/>
<polygon fill="#8d8d8d" stroke="#8d8d8d" stroke-width="2" points="394.17,-751.89 386.71,-754.63 394.25,-757.14 394.17,-751.89"/>
<polygon fill="#18191b" fill-opacity="0.627451" stroke="transparent" points="864.5,-749 864.5,-770 937.5,-770 937.5,-749 864.5,-749"/>
<text text-anchor="start" x="868" y="-755.3" font-family="Arial" font-size="14.00" fill="#c9c9c9">RustConfig</text>
</g>
<!-- tests&#45;&gt;error -->
<g id="edge7" class="edge">
<title>tests&#45;&gt;error</title>
<path fill="none" stroke="#8d8d8d" stroke-width="2" stroke-dasharray="5,2" d="M1498.87,-827.1C1408.5,-937.15 1242.19,-1122.7 1064,-1237 824.5,-1390.63 675.65,-1271.72 465,-1463 420.27,-1503.62 442.59,-1537.69 405,-1585 391.21,-1602.35 375.02,-1619.02 358.12,-1634.48"/>
<polygon fill="#8d8d8d" stroke="#8d8d8d" stroke-width="2" points="356.18,-1632.7 352.37,-1639.67 359.69,-1636.59 356.18,-1632.7"/>
<polygon fill="#18191b" fill-opacity="0.627451" stroke="transparent" points="842,-1337 842,-1358 960,-1358 960,-1337 842,-1337"/>
<text text-anchor="start" x="845" y="-1343.3" font-family="Arial" font-size="14.00" fill="#c9c9c9">RustFrontendError</text>
</g>
<!-- tests&#45;&gt;frontend -->
<g id="edge8" class="edge">
<title>tests&#45;&gt;frontend</title>
<path fill="none" stroke="#8d8d8d" stroke-width="2" stroke-dasharray="5,2" d="M1730.58,-698.81C1852.9,-667.48 2025.1,-619.09 2171,-562 2188.37,-555.2 2206.21,-547.56 2223.89,-539.54"/>
<polygon fill="#8d8d8d" stroke="#8d8d8d" stroke-width="2" points="2225.19,-541.83 2230.92,-536.32 2223.01,-537.05 2225.19,-541.83"/>
<polygon fill="#18191b" fill-opacity="0.627451" stroke="transparent" points="1963.5,-679 1963.5,-700 2009.5,-700 2009.5,-679 1963.5,-679"/>
<text text-anchor="start" x="1966.5" y="-685.3" font-family="Arial" font-size="14.00" fill="#c9c9c9">survey</text>
</g>
<!-- tests&#45;&gt;model -->
<g id="edge9" class="edge">
<title>tests&#45;&gt;model</title>
<path fill="none" stroke="#8d8d8d" stroke-width="2" stroke-dasharray="5,2" d="M1606.76,-646.88C1643.5,-564.55 1708.8,-445.38 1802,-376 1938.78,-274.19 2014.19,-337.97 2171,-271 2197.22,-259.8 2224.15,-246.16 2249.89,-231.93"/>
<polygon fill="#8d8d8d" stroke="#8d8d8d" stroke-width="2" points="2251.48,-234.04 2256.75,-228.1 2248.93,-229.46 2251.48,-234.04"/>
<polygon fill="#18191b" fill-opacity="0.627451" stroke="transparent" points="1865,-376 1865,-397 2108,-397 2108,-376 1865,-376"/>
<text text-anchor="start" x="1868.5" y="-382.3" font-family="Arial" font-size="14.00" fill="#c9c9c9">Element, Model, Relation, RelationKind</text>
</g>
<!-- resolve&#45;&gt;visit -->
<g id="edge10" class="edge">
<title>resolve&#45;&gt;visit</title>
<path fill="none" stroke="#8d8d8d" stroke-width="2" stroke-dasharray="5,2" d="M1064.01,-1491.18C1163.12,-1441.73 1290,-1378.43 1391.85,-1327.62"/>
<polygon fill="#8d8d8d" stroke="#8d8d8d" stroke-width="2" points="1393.29,-1329.84 1398.83,-1324.14 1390.95,-1325.14 1393.29,-1329.84"/>
<polygon fill="#18191b" fill-opacity="0.627451" stroke="transparent" points="1176,-1454 1176,-1475 1287,-1475 1287,-1454 1176,-1454"/>
<text text-anchor="start" x="1179.5" y="-1460.3" font-family="Arial" font-size="14.00" fill="#c9c9c9">Anchor, RawPath</text>
</g>
<!-- resolve&#45;&gt;walk -->
<g id="edge11" class="edge">
<title>resolve&#45;&gt;walk</title>
<path fill="none" stroke="#8d8d8d" stroke-width="2" stroke-dasharray="5,2" d="M1064.07,-1557.33C1084.24,-1555.96 1104.59,-1554.79 1124,-1554 1219.48,-1550.14 1243.61,-1548.34 1339,-1554 1653.28,-1572.63 2017.23,-1622.54 2226.24,-1653.95"/>
<polygon fill="#8d8d8d" stroke="#8d8d8d" stroke-width="2" points="2226.11,-1656.59 2233.92,-1655.11 2226.89,-1651.4 2226.11,-1656.59"/>
<polygon fill="#18191b" fill-opacity="0.627451" stroke="transparent" points="1531,-1588 1531,-1609 1610,-1609 1610,-1588 1531,-1588"/>
<text text-anchor="start" x="1534.5" y="-1594.3" font-family="Arial" font-size="14.00" fill="#c9c9c9">ModulePath</text>
</g>
<!-- discover&#45;&gt;config -->
<g id="edge12" class="edge">
<title>discover&#45;&gt;config</title>
<path fill="none" stroke="#8d8d8d" stroke-width="2" stroke-dasharray="5,2" d="M2238.79,-941.11C2118.66,-942.38 1949.83,-941.86 1802,-933 1286.79,-902.13 680.91,-821.95 394.11,-781.34"/>
<polygon fill="#8d8d8d" stroke="#8d8d8d" stroke-width="2" points="394.35,-778.72 386.55,-780.27 393.61,-783.92 394.35,-778.72"/>
<polygon fill="#18191b" fill-opacity="0.627451" stroke="transparent" points="1195,-895 1195,-916 1268,-916 1268,-895 1195,-895"/>
<text text-anchor="start" x="1198.5" y="-901.3" font-family="Arial" font-size="14.00" fill="#c9c9c9">RustConfig</text>
</g>
<!-- discover&#45;&gt;error -->
<g id="edge14" class="edge">
<title>discover&#45;&gt;error</title>
<path fill="none" stroke="#8d8d8d" stroke-width="2" stroke-dasharray="5,2" d="M2391.18,-1028.18C2375.95,-1162.67 2327.06,-1414.28 2171,-1548 1926.57,-1757.43 1059.75,-1768.13 738,-1759 627.3,-1755.86 503.27,-1748.89 405.18,-1742.57"/>
<polygon fill="#8d8d8d" stroke="#8d8d8d" stroke-width="2" points="405.22,-1739.95 397.56,-1742.08 404.88,-1745.19 405.22,-1739.95"/>
<polygon fill="#18191b" fill-opacity="0.627451" stroke="transparent" points="1172.5,-1757 1172.5,-1778 1290.5,-1778 1290.5,-1757 1172.5,-1757"/>
<text text-anchor="start" x="1175.5" y="-1763.3" font-family="Arial" font-size="14.00" fill="#c9c9c9">RustFrontendError</text>
</g>
<!-- discover&#45;&gt;cargo -->
<g id="edge13" class="edge">
<title>discover&#45;&gt;cargo</title>
<path fill="none" stroke="#8d8d8d" stroke-width="2" stroke-dasharray="5,2" d="M2559.13,-938C2608.09,-938 2662.24,-938 2712.19,-938"/>
<polygon fill="#8d8d8d" stroke="#8d8d8d" stroke-width="2" points="2712.35,-940.63 2719.85,-938 2712.35,-935.38 2712.35,-940.63"/>
<polygon fill="#18191b" fill-opacity="0.627451" stroke="transparent" points="2627,-938 2627,-959 2660,-959 2660,-938 2627,-938"/>
<text text-anchor="start" x="2630.5" y="-944.3" font-family="Arial" font-size="14.00" fill="#c9c9c9">runs</text>
</g>
<!-- visit&#45;&gt;walk -->
<g id="edge15" class="edge">
<title>visit&#45;&gt;walk</title>
<path fill="none" stroke="#8d8d8d" stroke-width="2" stroke-dasharray="5,2" d="M1742.07,-1299.46C1865.34,-1346.41 2033.63,-1417.31 2171,-1500 2212.3,-1524.86 2254.42,-1556.41 2290.99,-1586.17"/>
<polygon fill="#8d8d8d" stroke="#8d8d8d" stroke-width="2" points="2289.34,-1588.22 2296.81,-1590.93 2292.66,-1584.15 2289.34,-1588.22"/>
<polygon fill="#18191b" fill-opacity="0.627451" stroke="transparent" points="1911,-1500 1911,-1521 2062,-1521 2062,-1500 1911,-1500"/>
<text text-anchor="start" x="1914.5" y="-1506.3" font-family="Arial" font-size="14.00" fill="#c9c9c9">ModulePath, is_cfg_test</text>
</g>
<!-- visit&#45;&gt;model -->
<g id="edge16" class="edge">
<title>visit&#45;&gt;model</title>
<path fill="none" stroke="#8d8d8d" stroke-width="2" stroke-dasharray="5,2" d="M1623.36,-1148.69C1661.67,-1078.19 1712.14,-976.65 1742,-882 1790.67,-727.73 1693.87,-643.32 1802,-523 1915.81,-396.36 2056.86,-546.35 2171,-420 2206.07,-381.18 2164.43,-349.06 2191,-304 2206.42,-277.85 2227.63,-254.15 2250.61,-233.39"/>
<polygon fill="#8d8d8d" stroke="#8d8d8d" stroke-width="2" points="2252.62,-235.12 2256.49,-228.18 2249.14,-231.19 2252.62,-235.12"/>
<polygon fill="#18191b" fill-opacity="0.627451" stroke="transparent" points="1945,-523 1945,-544 2028,-544 2028,-523 1945,-523"/>
<text text-anchor="start" x="1948.5" y="-529.3" font-family="Arial" font-size="14.00" fill="#c9c9c9">RelationKind</text>
</g>
<!-- walk&#45;&gt;error -->
<g id="edge17" class="edge">
<title>walk&#45;&gt;error</title>
<path fill="none" stroke="#8d8d8d" stroke-width="2" stroke-dasharray="5,2" d="M2233.9,-1724.32C2101.82,-1757.91 1911.01,-1803.54 1742,-1833 1461.89,-1881.82 734.15,-2004.67 465,-1913 450.11,-1907.93 396.36,-1866.87 343.75,-1824.93"/>
<polygon fill="#8d8d8d" stroke="#8d8d8d" stroke-width="2" points="345.18,-1822.7 337.68,-1820.08 341.9,-1826.81 345.18,-1822.7"/>
<polygon fill="#18191b" fill-opacity="0.627451" stroke="transparent" points="1172.5,-1922 1172.5,-1943 1290.5,-1943 1290.5,-1922 1172.5,-1922"/>
<text text-anchor="start" x="1175.5" y="-1928.3" font-family="Arial" font-size="14.00" fill="#c9c9c9">RustFrontendError</text>
</g>
<!-- walk&#45;&gt;source -->
<g id="edge18" class="edge">
<title>walk&#45;&gt;source</title>
<path fill="none" stroke="#8d8d8d" stroke-width="2" stroke-dasharray="5,2" d="M2254.18,-1771.16C2227.26,-1785.4 2198.81,-1798.77 2171,-1809 1557.19,-2034.65 766.32,-2040.15 412.69,-2029.07"/>
<polygon fill="#8d8d8d" stroke="#8d8d8d" stroke-width="2" points="412.77,-2026.45 405.19,-2028.83 412.6,-2031.7 412.77,-2026.45"/>
<polygon fill="#18191b" fill-opacity="0.627451" stroke="transparent" points="1196,-2012 1196,-2033 1267,-2033 1267,-2012 1196,-2012"/>
<text text-anchor="start" x="1199.5" y="-2018.3" font-family="Arial" font-size="14.00" fill="#c9c9c9">FileSource</text>
</g>
<!-- frontend&#45;&gt;model -->
<g id="edge19" class="edge">
<title>frontend&#45;&gt;model</title>
<path fill="none" stroke="#8d8d8d" stroke-width="2" stroke-dasharray="5,2" d="M2399,-358.94C2399,-320.47 2399,-275.47 2399,-236.16"/>
<polygon fill="#8d8d8d" stroke="#8d8d8d" stroke-width="2" points="2401.63,-235.87 2399,-228.37 2396.38,-235.87 2401.63,-235.87"/>
<polygon fill="#18191b" fill-opacity="0.627451" stroke="transparent" points="2363.5,-283 2363.5,-304 2407.5,-304 2407.5,-283 2363.5,-283"/>
<text text-anchor="start" x="2366.5" y="-289.3" font-family="Arial" font-size="14.00" fill="#c9c9c9">Model</text>
</g>
</g>
</svg>
