<?xml version="1.0" encoding="UTF-8" standalone="no"?>
<!DOCTYPE svg PUBLIC "-//W3C//DTD SVG 1.1//EN"
 "http://www.w3.org/Graphics/SVG/1.1/DTD/svg11.dtd">
<!-- Generated by graphviz version 2.43.0 (0)
 -->
<!-- Title: %3 Pages: 1 -->
<svg width="5936pt" height="895pt"
 viewBox="0.00 0.00 5936.10 895.10" xmlns="http://www.w3.org/2000/svg" xmlns:xlink="http://www.w3.org/1999/xlink">
<g id="graph0" class="graph" transform="scale(1 1) rotate(0) translate(15.05 880.05)">
<title>%3</title>
<g id="clust1" class="cluster">
<title>cluster_components</title>
<polygon fill="#999999" stroke="#808080" points="8,-296 8,-596 5898,-596 5898,-296 8,-296"/>
<text text-anchor="start" x="16" y="-584.2" font-family="Arial" font-weight="bold" font-size="11.00" fill="#6d6d6d" fill-opacity="0.701961">COMPONENTS</text>
</g>
<!-- dogfood_banner -->
<g id="node1" class="node">
<title>dogfood_banner</title>
<polygon fill="#ffffff" stroke="#d6d6d6" stroke-width="0" points="798,-516 478,-516 478,-336 798,-336 798,-516"/>
<text text-anchor="start" x="564" y="-421" font-family="Arial" font-size="20.00" fill="#5b5b5b">dogfood_banner</text>
</g>
<!-- example -->
<g id="node2" class="node">
<title>example</title>
<polygon fill="#ffffff" stroke="#d6d6d6" stroke-width="0" points="1228,-516 908,-516 908,-336 1228,-336 1228,-516"/>
<text text-anchor="start" x="1030" y="-421" font-family="Arial" font-size="20.00" fill="#5b5b5b">example</text>
</g>
<!-- features -->
<g id="node3" class="node">
<title>features</title>
<polygon fill="#ffffff" stroke="#d6d6d6" stroke-width="0" points="1658,-516 1338,-516 1338,-336 1658,-336 1658,-516"/>
<text text-anchor="start" x="1461.5" y="-421" font-family="Arial" font-size="20.00" fill="#5b5b5b">features</text>
</g>
<!-- footer -->
<g id="node4" class="node">
<title>footer</title>
<polygon fill="#ffffff" stroke="#d6d6d6" stroke-width="0" points="4458,-516 4138,-516 4138,-336 4458,-336 4458,-516"/>
<text text-anchor="start" x="4272" y="-421" font-family="Arial" font-size="20.00" fill="#5b5b5b">footer</text>
</g>
<!-- hero -->
<g id="node5" class="node">
<title>hero</title>
<polygon fill="#ffffff" stroke="#d6d6d6" stroke-width="0" points="4888,-516 4568,-516 4568,-336 4888,-336 4888,-516"/>
<text text-anchor="start" x="4707.5" y="-421" font-family="Arial" font-size="20.00" fill="#5b5b5b">hero</text>
</g>
<!-- how_it_works -->
<g id="node6" class="node">
<title>how_it_works</title>
<polygon fill="#ffffff" stroke="#d6d6d6" stroke-width="0" points="2088,-516 1768,-516 1768,-336 2088,-336 2088,-516"/>
<text text-anchor="start" x="1867.5" y="-421" font-family="Arial" font-size="20.00" fill="#5b5b5b">how_it_works</text>
</g>
<!-- install -->
<g id="node7" class="node">
<title>install</title>
<polygon fill="#ffffff" stroke="#d6d6d6" stroke-width="0" points="3058,-516 2738,-516 2738,-336 3058,-336 3058,-516"/>
<text text-anchor="start" x="2872" y="-421" font-family="Arial" font-size="20.00" fill="#5b5b5b">install</text>
</g>
<!-- version_switcher -->
<g id="node8" class="node">
<title>version_switcher</title>
<polygon fill="#ffffff" stroke="#d6d6d6" stroke-width="0" points="5858,-516 5538,-516 5538,-336 5858,-336 5858,-516"/>
<text text-anchor="start" x="5623.5" y="-421" font-family="Arial" font-size="20.00" fill="#5b5b5b">version_switcher</text>
</g>
<!-- feature_card -->
<g id="node9" class="node">
<title>feature_card</title>
<polygon fill="#ffffff" stroke="#d6d6d6" stroke-width="0" points="4028,-516 3708,-516 3708,-336 4028,-336 4028,-516"/>
<text text-anchor="start" x="3811.5" y="-421" font-family="Arial" font-size="20.00" fill="#5b5b5b">feature_card</text>
</g>
<!-- icons_ -->
<g id="node10" class="node">
<title>icons_</title>
<polygon fill="#ffffff" stroke="#d6d6d6" stroke-width="0" points="5428,-516 5108,-516 5108,-336 5428,-336 5428,-516"/>
<text text-anchor="start" x="5244.5" y="-421" font-family="Arial" font-size="20.00" fill="#5b5b5b">icons</text>
</g>
<!-- code_tabs -->
<g id="node11" class="node">
<title>code_tabs</title>
<polygon fill="#ffffff" stroke="#d6d6d6" stroke-width="0" points="2628,-516 2308,-516 2308,-336 2628,-336 2628,-516"/>
<text text-anchor="start" x="2421.5" y="-421" font-family="Arial" font-size="20.00" fill="#5b5b5b">code_tabs</text>
</g>
<!-- code_block -->
<g id="node12" class="node">
<title>code_block</title>
<polygon fill="#ffffff" stroke="#d6d6d6" stroke-width="0" points="3598,-516 3278,-516 3278,-336 3598,-336 3598,-516"/>
<text text-anchor="start" x="3387" y="-421" font-family="Arial" font-size="20.00" fill="#5b5b5b">code_block</text>
</g>
<!-- unreleased_badge -->
<g id="node13" class="node">
<title>unreleased_badge</title>
<polygon fill="#ffffff" stroke="#d6d6d6" stroke-width="0" points="368,-516 48,-516 48,-336 368,-336 368,-516"/>
<text text-anchor="start" x="124" y="-421" font-family="Arial" font-size="20.00" fill="#5b5b5b">unreleased_badge</text>
</g>
<!-- app -->
<g id="node14" class="node">
<title>app</title>
<polygon fill="#ffffff" stroke="#d6d6d6" stroke-width="0" points="2898,-865 2578,-865 2578,-685 2898,-685 2898,-865"/>
<text text-anchor="start" x="2721" y="-770" font-family="Arial" font-size="20.00" fill="#5b5b5b">app</text>
</g>
<!-- snippets -->
<g id="node15" class="node">
<title>snippets</title>
<polygon fill="#ffffff" stroke="#d6d6d6" stroke-width="0" points="1817,-180 1481,-180 1481,0 1817,0 1817,-180"/>
<text text-anchor="start" x="1611.5" y="-129" font-family="Arial" font-size="20.00" fill="#5b5b5b">snippets</text>
<text text-anchor="start" x="1501" y="-107" font-family="Arial" font-size="15.00" fill="#6d6d6d">Syntax&#45;highlighted code snippets, generated</text>
<text text-anchor="start" x="1549" y="-90" font-family="Arial" font-size="15.00" fill="#6d6d6d">at build time by `build.rs` from</text>
<text text-anchor="start" x="1505.5" y="-73" font-family="Arial" font-size="15.00" fill="#6d6d6d">the files in `snippets/`. Each constant holds</text>
<text text-anchor="start" x="1572" y="-56" font-family="Arial" font-size="15.00" fill="#6d6d6d">highlighted inner HTML</text>
<text text-anchor="start" x="1502.5" y="-39" font-family="Arial" font-size="15.00" fill="#6d6d6d">(token spans with inline colors) rendered via</text>
</g>
<!-- version -->
<g id="node16" class="node">
<title>version</title>
<polygon fill="#ffffff" stroke="#d6d6d6" stroke-width="0" points="4461.5,-180 4134.5,-180 4134.5,0 4461.5,0 4461.5,-180"/>
<text text-anchor="start" x="4266" y="-129" font-family="Arial" font-size="20.00" fill="#5b5b5b">version</text>
<text text-anchor="start" x="4168.5" y="-107" font-family="Arial" font-size="15.00" fill="#6d6d6d">The build&#39;s version identity and the one</text>
<text text-anchor="start" x="4211" y="-90" font-family="Arial" font-size="15.00" fill="#6d6d6d">place the site&#39;s path prefix</text>
<text text-anchor="start" x="4210.5" y="-73" font-family="Arial" font-size="15.00" fill="#6d6d6d">is spelled. `build.rs` injects</text>
<text text-anchor="start" x="4155" y="-56" font-family="Arial" font-size="15.00" fill="#6d6d6d">`SITE_VERSION`; the deploy serves every</text>
<text text-anchor="start" x="4166" y="-39" font-family="Arial" font-size="15.00" fill="#6d6d6d">snapshot under `/asbuilt/&lt;dev|vX.Y.Z&gt;/`</text>
</g>
<!-- example&#45;&gt;code_block -->
<g id="edge9" class="edge">
<title>example&#45;&gt;code_block</title>
<path fill="none" stroke="#8d8d8d" stroke-width="2" stroke-dasharray="5,2" d="M1160.92,-516.08C1196.27,-544.48 1238.76,-572.27 1283,-587 1379.46,-619.11 3014.01,-610.18 3113,-587 3172.09,-573.17 3232.75,-546.93 3285.43,-519.59"/>
<polygon fill="#8d8d8d" stroke="#8d8d8d" stroke-width="2" points="3286.71,-521.88 3292.14,-516.08 3284.28,-517.23 3286.71,-521.88"/>
<polygon fill="#18191b" fill-opacity="0.627451" stroke="transparent" points="1907,-604 1907,-625 1979,-625 1979,-604 1907,-604"/>
<text text-anchor="start" x="1910" y="-610.3" font-family="Arial" font-size="14.00" fill="#c9c9c9">CodeBlock</text>
</g>
<!-- example&#45;&gt;snippets -->
<g id="edge10" class="edge">
<title>example&#45;&gt;snippets</title>
<path fill="none" stroke="#8d8d8d" stroke-width="2" stroke-dasharray="5,2" d="M1215.12,-335.94C1237.78,-322.45 1260.97,-308.77 1283,-296 1347.28,-258.72 1418.47,-218.6 1480.83,-183.81"/>
<polygon fill="#8d8d8d" stroke="#8d8d8d" stroke-width="2" points="1482.34,-185.98 1487.62,-180.03 1479.79,-181.39 1482.34,-185.98"/>
<polygon fill="#18191b" fill-opacity="0.627451" stroke="transparent" points="1373,-247.5 1373,-268.5 1430,-268.5 1430,-247.5 1373,-247.5"/>
<text text-anchor="start" x="1376.5" y="-253.8" font-family="Arial" font-size="14.00" fill="#c9c9c9">snippets</text>
</g>
<!-- features&#45;&gt;feature_card -->
<g id="edge11" class="edge">
<title>features&#45;&gt;feature_card</title>
<path fill="none" stroke="#8d8d8d" stroke-width="2" stroke-dasharray="5,2" d="M1590.92,-516.08C1626.27,-544.48 1668.76,-572.27 1713,-587 1815.26,-621.04 3550.74,-621.04 3653,-587 3694.65,-573.13 3734.74,-547.69 3768.79,-521.07"/>
<polygon fill="#8d8d8d" stroke="#8d8d8d" stroke-width="2" points="3770.83,-522.8 3775.08,-516.08 3767.57,-518.69 3770.83,-522.8"/>
<polygon fill="#18191b" fill-opacity="0.627451" stroke="transparent" points="2099,-604 2099,-625 2181,-625 2181,-604 2099,-604"/>
<text text-anchor="start" x="2102" y="-610.3" font-family="Arial" font-size="14.00" fill="#c9c9c9">FeatureCard</text>
</g>
<!-- features&#45;&gt;code_block -->
<g id="edge12" class="edge">
<title>features&#45;&gt;code_block</title>
<path fill="none" stroke="#8d8d8d" stroke-width="2" stroke-dasharray="5,2" d="M1590.92,-516.08C1626.27,-544.48 1668.76,-572.27 1713,-587 1860.59,-636.14 2961.54,-622.46 3113,-587 3172.09,-573.17 3232.75,-546.93 3285.43,-519.59"/>
<polygon fill="#8d8d8d" stroke="#8d8d8d" stroke-width="2" points="3286.71,-521.88 3292.14,-516.08 3284.28,-517.23 3286.71,-521.88"/>
<polygon fill="#18191b" fill-opacity="0.627451" stroke="transparent" points="2351,-604 2351,-625 2423,-625 2423,-604 2351,-604"/>
<text text-anchor="start" x="2354" y="-610.3" font-family="Arial" font-size="14.00" fill="#c9c9c9">CodeBlock</text>
</g>
<!-- features&#45;&gt;snippets -->
<g id="edge13" class="edge">
<title>features&#45;&gt;snippets</title>
<path fill="none" stroke="#8d8d8d" stroke-width="2" stroke-dasharray="5,2" d="M1538.27,-335.93C1559.04,-289.98 1584.41,-233.87 1605.62,-186.96"/>
<polygon fill="#8d8d8d" stroke="#8d8d8d" stroke-width="2" points="1608.02,-188.02 1608.71,-180.11 1603.23,-185.86 1608.02,-188.02"/>
<polygon fill="#18191b" fill-opacity="0.627451" stroke="transparent" points="1579,-247.5 1579,-268.5 1636,-268.5 1636,-247.5 1579,-247.5"/>
<text text-anchor="start" x="1582.5" y="-253.8" font-family="Arial" font-size="14.00" fill="#c9c9c9">snippets</text>
</g>
<!-- footer&#45;&gt;version -->
<g id="edge14" class="edge">
<title>footer&#45;&gt;version</title>
<path fill="none" stroke="#8d8d8d" stroke-width="2" stroke-dasharray="5,2" d="M4298,-335.93C4298,-290.26 4298,-234.56 4298,-187.83"/>
<polygon fill="#8d8d8d" stroke="#8d8d8d" stroke-width="2" points="4300.63,-187.61 4298,-180.11 4295.38,-187.61 4300.63,-187.61"/>
<polygon fill="#18191b" fill-opacity="0.627451" stroke="transparent" points="4298,-247.5 4298,-268.5 4344,-268.5 4344,-247.5 4298,-247.5"/>
<text text-anchor="start" x="4301" y="-253.8" font-family="Arial" font-size="14.00" fill="#c9c9c9">is_dev</text>
</g>
<!-- hero&#45;&gt;icons_ -->
<g id="edge15" class="edge">
<title>hero&#45;&gt;icons_</title>
<path fill="none" stroke="#8d8d8d" stroke-width="2" stroke-dasharray="5,2" d="M4888.19,-426C4954.96,-426 5032.53,-426 5100.09,-426"/>
<polygon fill="#8d8d8d" stroke="#8d8d8d" stroke-width="2" points="5100.36,-428.63 5107.86,-426 5100.36,-423.38 5100.36,-428.63"/>
<polygon fill="#18191b" fill-opacity="0.627451" stroke="transparent" points="4962.5,-429 4962.5,-450 5033.5,-450 5033.5,-429 4962.5,-429"/>
<text text-anchor="start" x="4966" y="-435.3" font-family="Arial" font-size="14.00" fill="#c9c9c9">Icon, icons</text>
</g>
<!-- hero&#45;&gt;version -->
<g id="edge16" class="edge">
<title>hero&#45;&gt;version</title>
<path fill="none" stroke="#8d8d8d" stroke-width="2" stroke-dasharray="5,2" d="M4613.33,-335.93C4553.32,-289.32 4479.86,-232.26 4418.95,-184.95"/>
<polygon fill="#8d8d8d" stroke="#8d8d8d" stroke-width="2" points="4420.25,-182.64 4412.72,-180.11 4417.03,-186.78 4420.25,-182.64"/>
<polygon fill="#18191b" fill-opacity="0.627451" stroke="transparent" points="4525,-247.5 4525,-268.5 4571,-268.5 4571,-247.5 4525,-247.5"/>
<text text-anchor="start" x="4528" y="-253.8" font-family="Arial" font-size="14.00" fill="#c9c9c9">is_dev</text>
</g>
<!-- how_it_works&#45;&gt;code_tabs -->
<g id="edge17" class="edge">
<title>how_it_works&#45;&gt;code_tabs</title>
<path fill="none" stroke="#8d8d8d" stroke-width="2" stroke-dasharray="5,2" d="M2088.19,-426C2154.96,-426 2232.53,-426 2300.09,-426"/>
<polygon fill="#8d8d8d" stroke="#8d8d8d" stroke-width="2" points="2300.36,-428.63 2307.86,-426 2300.36,-423.38 2300.36,-428.63"/>
<polygon fill="#18191b" fill-opacity="0.627451" stroke="transparent" points="2164.5,-429 2164.5,-450 2231.5,-450 2231.5,-429 2164.5,-429"/>
<text text-anchor="start" x="2168" y="-435.3" font-family="Arial" font-size="14.00" fill="#c9c9c9">CodeTabs</text>
</g>
<!-- how_it_works&#45;&gt;snippets -->
<g id="edge18" class="edge">
<title>how_it_works&#45;&gt;snippets</title>
<path fill="none" stroke="#8d8d8d" stroke-width="2" stroke-dasharray="5,2" d="M1853.6,-335.93C1814.98,-289.7 1767.77,-233.18 1728.44,-186.1"/>
<polygon fill="#8d8d8d" stroke="#8d8d8d" stroke-width="2" points="1730.26,-184.18 1723.44,-180.11 1726.23,-187.55 1730.26,-184.18"/>
<polygon fill="#18191b" fill-opacity="0.627451" stroke="transparent" points="1797,-247.5 1797,-268.5 1854,-268.5 1854,-247.5 1797,-247.5"/>
<text text-anchor="start" x="1800.5" y="-253.8" font-family="Arial" font-size="14.00" fill="#c9c9c9">snippets</text>
</g>
<!-- install&#45;&gt;code_block -->
<g id="edge19" class="edge">
<title>install&#45;&gt;code_block</title>
<path fill="none" stroke="#8d8d8d" stroke-width="2" stroke-dasharray="5,2" d="M3058.19,-426C3124.96,-426 3202.53,-426 3270.09,-426"/>
<polygon fill="#8d8d8d" stroke="#8d8d8d" stroke-width="2" points="3270.36,-428.63 3277.86,-426 3270.36,-423.38 3270.36,-428.63"/>
<polygon fill="#18191b" fill-opacity="0.627451" stroke="transparent" points="3132,-429 3132,-450 3204,-450 3204,-429 3132,-429"/>
<text text-anchor="start" x="3135" y="-435.3" font-family="Arial" font-size="14.00" fill="#c9c9c9">CodeBlock</text>
</g>
<!-- install&#45;&gt;snippets -->
<g id="edge20" class="edge">
<title>install&#45;&gt;snippets</title>
<path fill="none" stroke="#8d8d8d" stroke-width="2" stroke-dasharray="5,2" d="M2765.42,-335.87C2738.94,-320.85 2710.72,-306.69 2683,-296 2393.95,-184.53 2035.04,-130.84 1825.05,-107.26"/>
<polygon fill="#8d8d8d" stroke="#8d8d8d" stroke-width="2" points="1825.08,-104.62 1817.34,-106.4 1824.5,-109.84 1825.08,-104.62"/>
<polygon fill="#18191b" fill-opacity="0.627451" stroke="transparent" points="2603,-247.5 2603,-268.5 2660,-268.5 2660,-247.5 2603,-247.5"/>
<text text-anchor="start" x="2606.5" y="-253.8" font-family="Arial" font-size="14.00" fill="#c9c9c9">snippets</text>
</g>
<!-- install&#45;&gt;version -->
<g id="edge21" class="edge">
<title>install&#45;&gt;version</title>
<path fill="none" stroke="#8d8d8d" stroke-width="2" stroke-dasharray="5,2" d="M3058.31,-354.39C3110.15,-333.45 3168.35,-311.9 3223,-296 3536.03,-204.92 3912.39,-143.84 4126.55,-113.46"/>
<polygon fill="#8d8d8d" stroke="#8d8d8d" stroke-width="2" points="4127.04,-116.04 4134.1,-112.39 4126.31,-110.84 4127.04,-116.04"/>
<polygon fill="#18191b" fill-opacity="0.627451" stroke="transparent" points="3425,-247.5 3425,-268.5 3471,-268.5 3471,-247.5 3425,-247.5"/>
<text text-anchor="start" x="3428" y="-253.8" font-family="Arial" font-size="14.00" fill="#c9c9c9">is_dev</text>
</g>
<!-- version_switcher&#45;&gt;version -->
<g id="edge22" class="edge">
<title>version_switcher&#45;&gt;version</title>
<path fill="none" stroke="#8d8d8d" stroke-width="2" stroke-dasharray="5,2" d="M5566.8,-335.98C5539.96,-320.76 5511.26,-306.5 5483,-296 5137.18,-167.46 4704.17,-118.7 4469.1,-100.82"/>
<polygon fill="#8d8d8d" stroke="#8d8d8d" stroke-width="2" points="4469.19,-98.2 4461.52,-100.25 4468.8,-103.43 4469.19,-98.2"/>
<polygon fill="#18191b" fill-opacity="0.627451" stroke="transparent" points="5422,-240 5422,-276 5659,-276 5659,-240 5422,-240"/>
<text text-anchor="start" x="5425.5" y="-261.8" font-family="Arial" font-size="14.00" fill="#c9c9c9">SITE_VERSION, is_dev, manifest_url,</text>
<text text-anchor="start" x="5425.5" y="-246.8" font-family="Arial" font-size="14.00" fill="#c9c9c9">snapshot_url</text>
</g>
<!-- feature_card&#45;&gt;version -->
<g id="edge23" class="edge">
<title>feature_card&#45;&gt;version</title>
<path fill="none" stroke="#8d8d8d" stroke-width="2" stroke-dasharray="5,2" d="M3982.67,-335.93C4042.68,-289.32 4116.14,-232.26 4177.05,-184.95"/>
<polygon fill="#8d8d8d" stroke="#8d8d8d" stroke-width="2" points="4178.97,-186.78 4183.28,-180.11 4175.75,-182.64 4178.97,-186.78"/>
<polygon fill="#18191b" fill-opacity="0.627451" stroke="transparent" points="4095,-247.5 4095,-268.5 4141,-268.5 4141,-247.5 4095,-247.5"/>
<text text-anchor="start" x="4098" y="-253.8" font-family="Arial" font-size="14.00" fill="#c9c9c9">is_dev</text>
</g>
<!-- app&#45;&gt;dogfood_banner -->
<g id="edge1" class="edge">
<title>app&#45;&gt;dogfood_banner</title>
<path fill="none" stroke="#8d8d8d" stroke-width="2" stroke-dasharray="5,2" d="M2577.73,-770.43C2181.44,-759.77 1165.11,-720.72 853,-596 809.86,-578.76 768.3,-550.02 733.4,-521.08"/>
<polygon fill="#8d8d8d" stroke="#8d8d8d" stroke-width="2" points="734.84,-518.86 727.41,-516.05 731.47,-522.88 734.84,-518.86"/>
<polygon fill="#18191b" fill-opacity="0.627451" stroke="transparent" points="935,-604 935,-625 1036,-625 1036,-604 935,-604"/>
<text text-anchor="start" x="938.5" y="-610.3" font-family="Arial" font-size="14.00" fill="#c9c9c9">DogfoodBanner</text>
</g>
<!-- app&#45;&gt;example -->
<g id="edge2" class="edge">
<title>app&#45;&gt;example</title>
<path fill="none" stroke="#8d8d8d" stroke-width="2" stroke-dasharray="5,2" d="M2577.72,-765.27C2249.91,-745.66 1514.25,-692.13 1283,-596 1240.42,-578.3 1199.2,-549.7 1164.44,-521.02"/>
<polygon fill="#8d8d8d" stroke="#8d8d8d" stroke-width="2" points="1165.91,-518.84 1158.47,-516.05 1162.55,-522.87 1165.91,-518.84"/>
<polygon fill="#18191b" fill-opacity="0.627451" stroke="transparent" points="1371,-604 1371,-625 1431,-625 1431,-604 1371,-604"/>
<text text-anchor="start" x="1374" y="-610.3" font-family="Arial" font-size="14.00" fill="#c9c9c9">Example</text>
</g>
<!-- app&#45;&gt;features -->
<g id="edge3" class="edge">
<title>app&#45;&gt;features</title>
<path fill="none" stroke="#8d8d8d" stroke-width="2" stroke-dasharray="5,2" d="M2577.89,-757.63C2328.89,-730.27 1861.94,-670.8 1713,-596 1673.39,-576.11 1634.08,-548.25 1600.12,-520.89"/>
<polygon fill="#8d8d8d" stroke="#8d8d8d" stroke-width="2" points="1601.76,-518.83 1594.28,-516.14 1598.45,-522.91 1601.76,-518.83"/>
<polygon fill="#18191b" fill-opacity="0.627451" stroke="transparent" points="1774,-604 1774,-625 1834,-625 1834,-604 1774,-604"/>
<text text-anchor="start" x="1777" y="-610.3" font-family="Arial" font-size="14.00" fill="#c9c9c9">Features</text>
</g>
<!-- app&#45;&gt;footer -->
<g id="edge4" class="edge">
<title>app&#45;&gt;footer</title>
<path fill="none" stroke="#8d8d8d" stroke-width="2" stroke-dasharray="5,2" d="M2898.22,-763.44C3206.9,-741.35 3872.19,-684.85 4083,-596 4125.39,-578.13 4166.49,-549.58 4201.21,-520.99"/>
<polygon fill="#8d8d8d" stroke="#8d8d8d" stroke-width="2" points="4203.08,-522.85 4207.17,-516.03 4199.73,-518.81 4203.08,-522.85"/>
<polygon fill="#18191b" fill-opacity="0.627451" stroke="transparent" points="4045,-604 4045,-625 4091,-625 4091,-604 4045,-604"/>
<text text-anchor="start" x="4048" y="-610.3" font-family="Arial" font-size="14.00" fill="#c9c9c9">Footer</text>
</g>
<!-- app&#45;&gt;hero -->
<g id="edge5" class="edge">
<title>app&#45;&gt;hero</title>
<path fill="none" stroke="#8d8d8d" stroke-width="2" stroke-dasharray="5,2" d="M2898.3,-769.34C3277.9,-756.5 4221.7,-713.38 4513,-596 4555.98,-578.68 4597.44,-550 4632.29,-521.14"/>
<polygon fill="#8d8d8d" stroke="#8d8d8d" stroke-width="2" points="4634.21,-522.96 4638.27,-516.13 4630.84,-518.94 4634.21,-522.96"/>
<polygon fill="#18191b" fill-opacity="0.627451" stroke="transparent" points="4489,-604 4489,-625 4525,-625 4525,-604 4489,-604"/>
<text text-anchor="start" x="4492" y="-610.3" font-family="Arial" font-size="14.00" fill="#c9c9c9">Hero</text>
</g>
<!-- app&#45;&gt;how_it_works -->
<g id="edge6" class="edge">
<title>app&#45;&gt;how_it_works</title>
<path fill="none" stroke="#8d8d8d" stroke-width="2" stroke-dasharray="5,2" d="M2617.34,-684.79C2567.99,-653.25 2508.75,-621.33 2450,-604 2407.98,-591.6 2295.34,-607.27 2253,-596 2190.99,-579.5 2127.37,-549.75 2073.05,-519.77"/>
<polygon fill="#8d8d8d" stroke="#8d8d8d" stroke-width="2" points="2074.3,-517.46 2066.47,-516.11 2071.75,-522.05 2074.3,-517.46"/>
<polygon fill="#18191b" fill-opacity="0.627451" stroke="transparent" points="2502,-604 2502,-625 2581,-625 2581,-604 2502,-604"/>
<text text-anchor="start" x="2505.5" y="-610.3" font-family="Arial" font-size="14.00" fill="#c9c9c9">HowItWorks</text>
</g>
<!-- app&#45;&gt;install -->
<g id="edge7" class="edge">
<title>app&#45;&gt;install</title>
<path fill="none" stroke="#8d8d8d" stroke-width="2" stroke-dasharray="5,2" d="M2779.2,-684.64C2802.02,-635.16 2830.39,-573.63 2853.68,-523.11"/>
<polygon fill="#8d8d8d" stroke="#8d8d8d" stroke-width="2" points="2856.18,-523.97 2856.94,-516.06 2851.41,-521.77 2856.18,-523.97"/>
<polygon fill="#18191b" fill-opacity="0.627451" stroke="transparent" points="2813,-604 2813,-625 2855,-625 2855,-604 2813,-604"/>
<text text-anchor="start" x="2816" y="-610.3" font-family="Arial" font-size="14.00" fill="#c9c9c9">Install</text>
</g>
<!-- app&#45;&gt;version_switcher -->
<g id="edge8" class="edge">
<title>app&#45;&gt;version_switcher</title>
<path fill="none" stroke="#8d8d8d" stroke-width="2" stroke-dasharray="5,2" d="M2898.07,-769.15C3448.35,-751.71 5241.8,-688.3 5483,-596 5526.7,-579.28 5568.61,-550.39 5603.64,-521.17"/>
<polygon fill="#8d8d8d" stroke="#8d8d8d" stroke-width="2" points="5605.61,-522.94 5609.65,-516.1 5602.23,-518.93 5605.61,-522.94"/>
<polygon fill="#18191b" fill-opacity="0.627451" stroke="transparent" points="5438,-604 5438,-625 5541,-625 5541,-604 5438,-604"/>
<text text-anchor="start" x="5441.5" y="-610.3" font-family="Arial" font-size="14.00" fill="#c9c9c9">VersionSwitcher</text>
</g>
</g>
</svg>
